<mxfile host="app.diagrams.net" modified="2021-03-09T00:41:46.817Z" agent="5.0 (X11)" etag="JiBTV0ALwvevS5s4_LqI" version="14.4.5" type="github">
  <diagram id="R2lEEEUBdFMjLlhIrx00" name="Page-1">
    <mxGraphModel dx="886" dy="912" grid="1" gridSize="10" guides="1" tooltips="1" connect="1" arrows="1" fold="1" page="1" pageScale="1" pageWidth="850" pageHeight="1100" math="0" shadow="0" extFonts="Permanent Marker^https://fonts.googleapis.com/css?family=Permanent+Marker">
      <root>
        <mxCell id="0" />
        <mxCell id="1" parent="0" />
        <mxCell id="C-vyLk0tnHw3VtMMgP7b-12" value="" style="edgeStyle=entityRelationEdgeStyle;endArrow=ERzeroToMany;startArrow=ERone;endFill=1;startFill=0;" parent="1" target="C-vyLk0tnHw3VtMMgP7b-17" edge="1">
          <mxGeometry width="100" height="100" relative="1" as="geometry">
            <mxPoint x="740" y="75" as="sourcePoint" />
            <mxPoint x="460" y="205" as="targetPoint" />
          </mxGeometry>
        </mxCell>
        <mxCell id="0mzesN_WcEqe4faNA7i8-20" style="edgeStyle=none;rounded=0;orthogonalLoop=1;jettySize=auto;html=1;exitX=1;exitY=0.5;exitDx=0;exitDy=0;entryX=0;entryY=0.5;entryDx=0;entryDy=0;endArrow=none;endFill=0;" edge="1" parent="1" source="0mzesN_WcEqe4faNA7i8-1" target="0mzesN_WcEqe4faNA7i8-2">
          <mxGeometry relative="1" as="geometry" />
        </mxCell>
        <mxCell id="0mzesN_WcEqe4faNA7i8-21" style="edgeStyle=none;rounded=0;orthogonalLoop=1;jettySize=auto;html=1;exitX=1;exitY=0.5;exitDx=0;exitDy=0;entryX=0;entryY=0.5;entryDx=0;entryDy=0;endArrow=none;endFill=0;" edge="1" parent="1" source="0mzesN_WcEqe4faNA7i8-1" target="0mzesN_WcEqe4faNA7i8-3">
          <mxGeometry relative="1" as="geometry" />
        </mxCell>
        <mxCell id="0mzesN_WcEqe4faNA7i8-22" style="edgeStyle=none;rounded=0;orthogonalLoop=1;jettySize=auto;html=1;exitX=1;exitY=0.5;exitDx=0;exitDy=0;entryX=0;entryY=0.5;entryDx=0;entryDy=0;endArrow=none;endFill=0;" edge="1" parent="1" source="0mzesN_WcEqe4faNA7i8-1" target="0mzesN_WcEqe4faNA7i8-4">
          <mxGeometry relative="1" as="geometry" />
        </mxCell>
        <mxCell id="0mzesN_WcEqe4faNA7i8-23" style="edgeStyle=none;rounded=0;orthogonalLoop=1;jettySize=auto;html=1;exitX=1;exitY=0.5;exitDx=0;exitDy=0;entryX=0;entryY=0.5;entryDx=0;entryDy=0;endArrow=none;endFill=0;" edge="1" parent="1" source="0mzesN_WcEqe4faNA7i8-1" target="0mzesN_WcEqe4faNA7i8-5">
          <mxGeometry relative="1" as="geometry" />
        </mxCell>
        <mxCell id="0mzesN_WcEqe4faNA7i8-24" style="edgeStyle=none;rounded=0;orthogonalLoop=1;jettySize=auto;html=1;exitX=1;exitY=0.5;exitDx=0;exitDy=0;entryX=0;entryY=0.5;entryDx=0;entryDy=0;endArrow=none;endFill=0;" edge="1" parent="1" source="0mzesN_WcEqe4faNA7i8-1" target="0mzesN_WcEqe4faNA7i8-6">
          <mxGeometry relative="1" as="geometry" />
        </mxCell>
        <mxCell id="0mzesN_WcEqe4faNA7i8-43" style="edgeStyle=none;rounded=0;orthogonalLoop=1;jettySize=auto;html=1;exitX=0;exitY=0;exitDx=0;exitDy=0;entryX=1;entryY=0.5;entryDx=0;entryDy=0;endArrow=none;endFill=0;" edge="1" parent="1" source="0mzesN_WcEqe4faNA7i8-1" target="0mzesN_WcEqe4faNA7i8-7">
          <mxGeometry relative="1" as="geometry" />
        </mxCell>
        <mxCell id="0mzesN_WcEqe4faNA7i8-44" style="edgeStyle=none;rounded=0;orthogonalLoop=1;jettySize=auto;html=1;exitX=0.5;exitY=0;exitDx=0;exitDy=0;entryX=0.5;entryY=1;entryDx=0;entryDy=0;endArrow=none;endFill=0;" edge="1" parent="1" source="0mzesN_WcEqe4faNA7i8-1" target="0mzesN_WcEqe4faNA7i8-8">
          <mxGeometry relative="1" as="geometry" />
        </mxCell>
        <mxCell id="0mzesN_WcEqe4faNA7i8-60" style="edgeStyle=none;rounded=0;orthogonalLoop=1;jettySize=auto;html=1;exitX=0;exitY=0.5;exitDx=0;exitDy=0;entryX=1;entryY=0.5;entryDx=0;entryDy=0;endArrow=none;endFill=0;" edge="1" parent="1" source="0mzesN_WcEqe4faNA7i8-1" target="0mzesN_WcEqe4faNA7i8-9">
          <mxGeometry relative="1" as="geometry" />
        </mxCell>
        <mxCell id="0mzesN_WcEqe4faNA7i8-64" style="edgeStyle=none;rounded=0;orthogonalLoop=1;jettySize=auto;html=1;exitX=0.5;exitY=1;exitDx=0;exitDy=0;entryX=0.5;entryY=0;entryDx=0;entryDy=0;shape=link;" edge="1" parent="1" source="0mzesN_WcEqe4faNA7i8-1" target="0mzesN_WcEqe4faNA7i8-63">
          <mxGeometry relative="1" as="geometry" />
        </mxCell>
        <mxCell id="0mzesN_WcEqe4faNA7i8-1" value="vacinado" style="rounded=0;whiteSpace=wrap;html=1;" vertex="1" parent="1">
          <mxGeometry x="1360" y="240" width="120" height="40" as="geometry" />
        </mxCell>
        <mxCell id="0mzesN_WcEqe4faNA7i8-2" value="nome" style="ellipse;whiteSpace=wrap;html=1;" vertex="1" parent="1">
          <mxGeometry x="1560" y="160" width="80" height="40" as="geometry" />
        </mxCell>
        <mxCell id="0mzesN_WcEqe4faNA7i8-3" value="&lt;u&gt;cpf&lt;/u&gt;" style="ellipse;whiteSpace=wrap;html=1;" vertex="1" parent="1">
          <mxGeometry x="1560" y="200" width="80" height="40" as="geometry" />
        </mxCell>
        <mxCell id="0mzesN_WcEqe4faNA7i8-4" value="&lt;div&gt;data_nasc&lt;/div&gt;" style="ellipse;whiteSpace=wrap;html=1;" vertex="1" parent="1">
          <mxGeometry x="1560" y="240" width="80" height="40" as="geometry" />
        </mxCell>
        <mxCell id="0mzesN_WcEqe4faNA7i8-5" value="sexo" style="ellipse;whiteSpace=wrap;html=1;" vertex="1" parent="1">
          <mxGeometry x="1560" y="280" width="80" height="40" as="geometry" />
        </mxCell>
        <mxCell id="0mzesN_WcEqe4faNA7i8-6" value="&lt;div&gt;nome_mae&lt;/div&gt;" style="ellipse;whiteSpace=wrap;html=1;" vertex="1" parent="1">
          <mxGeometry x="1560" y="320" width="80" height="40" as="geometry" />
        </mxCell>
        <mxCell id="0mzesN_WcEqe4faNA7i8-16" style="rounded=0;orthogonalLoop=1;jettySize=auto;html=1;exitX=0;exitY=0.5;exitDx=0;exitDy=0;entryX=1;entryY=0.5;entryDx=0;entryDy=0;endArrow=none;endFill=0;" edge="1" parent="1" source="0mzesN_WcEqe4faNA7i8-7" target="0mzesN_WcEqe4faNA7i8-10">
          <mxGeometry relative="1" as="geometry" />
        </mxCell>
        <mxCell id="0mzesN_WcEqe4faNA7i8-17" style="edgeStyle=none;rounded=0;orthogonalLoop=1;jettySize=auto;html=1;exitX=0;exitY=0.5;exitDx=0;exitDy=0;entryX=1;entryY=0.5;entryDx=0;entryDy=0;endArrow=none;endFill=0;" edge="1" parent="1" source="0mzesN_WcEqe4faNA7i8-7" target="0mzesN_WcEqe4faNA7i8-11">
          <mxGeometry relative="1" as="geometry" />
        </mxCell>
        <mxCell id="0mzesN_WcEqe4faNA7i8-18" style="edgeStyle=none;rounded=0;orthogonalLoop=1;jettySize=auto;html=1;exitX=0;exitY=0.5;exitDx=0;exitDy=0;entryX=1;entryY=0.5;entryDx=0;entryDy=0;endArrow=none;endFill=0;" edge="1" parent="1" source="0mzesN_WcEqe4faNA7i8-7" target="0mzesN_WcEqe4faNA7i8-12">
          <mxGeometry relative="1" as="geometry" />
        </mxCell>
        <mxCell id="0mzesN_WcEqe4faNA7i8-7" value="contato" style="ellipse;whiteSpace=wrap;html=1;" vertex="1" parent="1">
          <mxGeometry x="1100" y="150" width="80" height="40" as="geometry" />
        </mxCell>
        <mxCell id="0mzesN_WcEqe4faNA7i8-48" style="edgeStyle=none;rounded=0;orthogonalLoop=1;jettySize=auto;html=1;exitX=0.5;exitY=0;exitDx=0;exitDy=0;entryX=0.5;entryY=1;entryDx=0;entryDy=0;endArrow=none;endFill=0;" edge="1" parent="1" source="0mzesN_WcEqe4faNA7i8-8" target="0mzesN_WcEqe4faNA7i8-46">
          <mxGeometry relative="1" as="geometry" />
        </mxCell>
        <mxCell id="0mzesN_WcEqe4faNA7i8-49" style="edgeStyle=none;rounded=0;orthogonalLoop=1;jettySize=auto;html=1;exitX=0.5;exitY=0;exitDx=0;exitDy=0;entryX=0.5;entryY=1;entryDx=0;entryDy=0;endArrow=none;endFill=0;" edge="1" parent="1" source="0mzesN_WcEqe4faNA7i8-8" target="0mzesN_WcEqe4faNA7i8-47">
          <mxGeometry relative="1" as="geometry" />
        </mxCell>
        <mxCell id="0mzesN_WcEqe4faNA7i8-8" value="dose" style="ellipse;whiteSpace=wrap;html=1;" vertex="1" parent="1">
          <mxGeometry x="1320" y="160" width="80" height="40" as="geometry" />
        </mxCell>
        <mxCell id="0mzesN_WcEqe4faNA7i8-40" style="edgeStyle=none;rounded=0;orthogonalLoop=1;jettySize=auto;html=1;entryX=1;entryY=0.5;entryDx=0;entryDy=0;exitX=0;exitY=0.5;exitDx=0;exitDy=0;endArrow=none;endFill=0;" edge="1" parent="1" source="0mzesN_WcEqe4faNA7i8-9" target="0mzesN_WcEqe4faNA7i8-26">
          <mxGeometry relative="1" as="geometry">
            <mxPoint x="1140" y="300" as="sourcePoint" />
          </mxGeometry>
        </mxCell>
        <mxCell id="0mzesN_WcEqe4faNA7i8-41" style="edgeStyle=none;rounded=0;orthogonalLoop=1;jettySize=auto;html=1;exitX=0;exitY=0.5;exitDx=0;exitDy=0;entryX=1;entryY=0.5;entryDx=0;entryDy=0;endArrow=none;endFill=0;" edge="1" parent="1" source="0mzesN_WcEqe4faNA7i8-9" target="0mzesN_WcEqe4faNA7i8-27">
          <mxGeometry relative="1" as="geometry" />
        </mxCell>
        <mxCell id="0mzesN_WcEqe4faNA7i8-42" style="edgeStyle=none;rounded=0;orthogonalLoop=1;jettySize=auto;html=1;exitX=0;exitY=0.5;exitDx=0;exitDy=0;entryX=1;entryY=0.5;entryDx=0;entryDy=0;endArrow=none;endFill=0;" edge="1" parent="1" source="0mzesN_WcEqe4faNA7i8-9" target="0mzesN_WcEqe4faNA7i8-29">
          <mxGeometry relative="1" as="geometry" />
        </mxCell>
        <mxCell id="0mzesN_WcEqe4faNA7i8-9" value="endereÃ§o" style="ellipse;whiteSpace=wrap;html=1;" vertex="1" parent="1">
          <mxGeometry x="1160" y="280" width="80" height="40" as="geometry" />
        </mxCell>
        <mxCell id="0mzesN_WcEqe4faNA7i8-10" value="tel_fixo" style="ellipse;whiteSpace=wrap;html=1;" vertex="1" parent="1">
          <mxGeometry x="980" y="150" width="80" height="40" as="geometry" />
        </mxCell>
        <mxCell id="0mzesN_WcEqe4faNA7i8-11" value="email" style="ellipse;whiteSpace=wrap;html=1;" vertex="1" parent="1">
          <mxGeometry x="980" y="110" width="80" height="40" as="geometry" />
        </mxCell>
        <mxCell id="0mzesN_WcEqe4faNA7i8-12" value="tel_movel" style="ellipse;whiteSpace=wrap;html=1;" vertex="1" parent="1">
          <mxGeometry x="980" y="190" width="80" height="40" as="geometry" />
        </mxCell>
        <mxCell id="0mzesN_WcEqe4faNA7i8-26" value="cep" style="ellipse;whiteSpace=wrap;html=1;" vertex="1" parent="1">
          <mxGeometry x="1040" y="240" width="80" height="40" as="geometry" />
        </mxCell>
        <mxCell id="0mzesN_WcEqe4faNA7i8-27" value="cidade" style="ellipse;whiteSpace=wrap;html=1;" vertex="1" parent="1">
          <mxGeometry x="1040" y="280" width="80" height="40" as="geometry" />
        </mxCell>
        <mxCell id="0mzesN_WcEqe4faNA7i8-35" style="edgeStyle=none;rounded=0;orthogonalLoop=1;jettySize=auto;html=1;exitX=0.5;exitY=1;exitDx=0;exitDy=0;entryX=0.5;entryY=0;entryDx=0;entryDy=0;endArrow=none;endFill=0;" edge="1" parent="1" source="0mzesN_WcEqe4faNA7i8-29" target="0mzesN_WcEqe4faNA7i8-32">
          <mxGeometry relative="1" as="geometry" />
        </mxCell>
        <mxCell id="0mzesN_WcEqe4faNA7i8-36" style="edgeStyle=none;rounded=0;orthogonalLoop=1;jettySize=auto;html=1;exitX=0.5;exitY=1;exitDx=0;exitDy=0;entryX=0.5;entryY=0;entryDx=0;entryDy=0;endArrow=none;endFill=0;" edge="1" parent="1" source="0mzesN_WcEqe4faNA7i8-29" target="0mzesN_WcEqe4faNA7i8-30">
          <mxGeometry relative="1" as="geometry" />
        </mxCell>
        <mxCell id="0mzesN_WcEqe4faNA7i8-37" style="edgeStyle=none;rounded=0;orthogonalLoop=1;jettySize=auto;html=1;exitX=0.5;exitY=1;exitDx=0;exitDy=0;entryX=0.5;entryY=0;entryDx=0;entryDy=0;endArrow=none;endFill=0;" edge="1" parent="1" source="0mzesN_WcEqe4faNA7i8-29" target="0mzesN_WcEqe4faNA7i8-33">
          <mxGeometry relative="1" as="geometry" />
        </mxCell>
        <mxCell id="0mzesN_WcEqe4faNA7i8-38" style="edgeStyle=none;rounded=0;orthogonalLoop=1;jettySize=auto;html=1;exitX=0.5;exitY=1;exitDx=0;exitDy=0;entryX=0.5;entryY=0;entryDx=0;entryDy=0;endArrow=none;endFill=0;" edge="1" parent="1" source="0mzesN_WcEqe4faNA7i8-29" target="0mzesN_WcEqe4faNA7i8-31">
          <mxGeometry relative="1" as="geometry" />
        </mxCell>
        <mxCell id="0mzesN_WcEqe4faNA7i8-39" style="edgeStyle=none;rounded=0;orthogonalLoop=1;jettySize=auto;html=1;exitX=0.5;exitY=1;exitDx=0;exitDy=0;entryX=0.5;entryY=0;entryDx=0;entryDy=0;endArrow=none;endFill=0;" edge="1" parent="1" source="0mzesN_WcEqe4faNA7i8-29" target="0mzesN_WcEqe4faNA7i8-34">
          <mxGeometry relative="1" as="geometry" />
        </mxCell>
        <mxCell id="0mzesN_WcEqe4faNA7i8-29" value="logradouro" style="ellipse;whiteSpace=wrap;html=1;" vertex="1" parent="1">
          <mxGeometry x="1040" y="320" width="80" height="40" as="geometry" />
        </mxCell>
        <mxCell id="0mzesN_WcEqe4faNA7i8-30" value="rua" style="ellipse;whiteSpace=wrap;html=1;" vertex="1" parent="1">
          <mxGeometry x="960" y="400" width="80" height="40" as="geometry" />
        </mxCell>
        <mxCell id="0mzesN_WcEqe4faNA7i8-31" value="bairro" style="ellipse;whiteSpace=wrap;html=1;" vertex="1" parent="1">
          <mxGeometry x="1120" y="400" width="80" height="40" as="geometry" />
        </mxCell>
        <mxCell id="0mzesN_WcEqe4faNA7i8-32" value="tipo" style="ellipse;whiteSpace=wrap;html=1;" vertex="1" parent="1">
          <mxGeometry x="880" y="400" width="80" height="40" as="geometry" />
        </mxCell>
        <mxCell id="0mzesN_WcEqe4faNA7i8-33" value="numero" style="ellipse;whiteSpace=wrap;html=1;" vertex="1" parent="1">
          <mxGeometry x="1040" y="400" width="80" height="40" as="geometry" />
        </mxCell>
        <mxCell id="0mzesN_WcEqe4faNA7i8-34" value="complemento" style="ellipse;whiteSpace=wrap;html=1;" vertex="1" parent="1">
          <mxGeometry x="1200" y="400" width="80" height="40" as="geometry" />
        </mxCell>
        <mxCell id="0mzesN_WcEqe4faNA7i8-54" style="edgeStyle=none;rounded=0;orthogonalLoop=1;jettySize=auto;html=1;exitX=0;exitY=0.5;exitDx=0;exitDy=0;entryX=1;entryY=0.5;entryDx=0;entryDy=0;endArrow=none;endFill=0;" edge="1" parent="1" source="0mzesN_WcEqe4faNA7i8-46" target="0mzesN_WcEqe4faNA7i8-50">
          <mxGeometry relative="1" as="geometry" />
        </mxCell>
        <mxCell id="0mzesN_WcEqe4faNA7i8-57" style="edgeStyle=none;rounded=0;orthogonalLoop=1;jettySize=auto;html=1;exitX=0;exitY=0.5;exitDx=0;exitDy=0;entryX=1;entryY=0.5;entryDx=0;entryDy=0;endArrow=none;endFill=0;" edge="1" parent="1" source="0mzesN_WcEqe4faNA7i8-46" target="0mzesN_WcEqe4faNA7i8-51">
          <mxGeometry relative="1" as="geometry" />
        </mxCell>
        <mxCell id="0mzesN_WcEqe4faNA7i8-46" value="primeira" style="ellipse;whiteSpace=wrap;html=1;" vertex="1" parent="1">
          <mxGeometry x="1240" y="80" width="80" height="40" as="geometry" />
        </mxCell>
        <mxCell id="0mzesN_WcEqe4faNA7i8-58" style="edgeStyle=none;rounded=0;orthogonalLoop=1;jettySize=auto;html=1;exitX=1;exitY=0.5;exitDx=0;exitDy=0;entryX=0;entryY=0.5;entryDx=0;entryDy=0;endArrow=none;endFill=0;" edge="1" parent="1" source="0mzesN_WcEqe4faNA7i8-47" target="0mzesN_WcEqe4faNA7i8-52">
          <mxGeometry relative="1" as="geometry" />
        </mxCell>
        <mxCell id="0mzesN_WcEqe4faNA7i8-59" style="edgeStyle=none;rounded=0;orthogonalLoop=1;jettySize=auto;html=1;exitX=1;exitY=0.5;exitDx=0;exitDy=0;entryX=0;entryY=0.5;entryDx=0;entryDy=0;endArrow=none;endFill=0;" edge="1" parent="1" source="0mzesN_WcEqe4faNA7i8-47" target="0mzesN_WcEqe4faNA7i8-53">
          <mxGeometry relative="1" as="geometry" />
        </mxCell>
        <mxCell id="0mzesN_WcEqe4faNA7i8-47" value="segunda" style="ellipse;whiteSpace=wrap;html=1;" vertex="1" parent="1">
          <mxGeometry x="1400" y="80" width="80" height="40" as="geometry" />
        </mxCell>
        <mxCell id="0mzesN_WcEqe4faNA7i8-50" value="data" style="ellipse;whiteSpace=wrap;html=1;" vertex="1" parent="1">
          <mxGeometry x="1120" y="80" width="80" height="40" as="geometry" />
        </mxCell>
        <mxCell id="0mzesN_WcEqe4faNA7i8-51" value="tomado" style="ellipse;whiteSpace=wrap;html=1;" vertex="1" parent="1">
          <mxGeometry x="1140" y="40" width="80" height="40" as="geometry" />
        </mxCell>
        <mxCell id="0mzesN_WcEqe4faNA7i8-52" value="tomado" style="ellipse;whiteSpace=wrap;html=1;" vertex="1" parent="1">
          <mxGeometry x="1500" y="40" width="80" height="40" as="geometry" />
        </mxCell>
        <mxCell id="0mzesN_WcEqe4faNA7i8-53" value="data" style="ellipse;whiteSpace=wrap;html=1;" vertex="1" parent="1">
          <mxGeometry x="1520" y="80" width="80" height="40" as="geometry" />
        </mxCell>
        <mxCell id="0mzesN_WcEqe4faNA7i8-73" style="edgeStyle=none;rounded=0;orthogonalLoop=1;jettySize=auto;html=1;exitX=0.5;exitY=1;exitDx=0;exitDy=0;startArrow=none;startFill=0;endArrow=none;endFill=0;entryX=0.5;entryY=0;entryDx=0;entryDy=0;" edge="1" parent="1" source="0mzesN_WcEqe4faNA7i8-63" target="0mzesN_WcEqe4faNA7i8-65">
          <mxGeometry relative="1" as="geometry">
            <mxPoint x="1540" y="520" as="targetPoint" />
          </mxGeometry>
        </mxCell>
        <mxCell id="0mzesN_WcEqe4faNA7i8-74" style="edgeStyle=none;rounded=0;orthogonalLoop=1;jettySize=auto;html=1;exitX=0.5;exitY=1;exitDx=0;exitDy=0;entryX=0.5;entryY=0;entryDx=0;entryDy=0;startArrow=none;startFill=0;endArrow=none;endFill=0;" edge="1" parent="1" source="0mzesN_WcEqe4faNA7i8-63" target="0mzesN_WcEqe4faNA7i8-66">
          <mxGeometry relative="1" as="geometry" />
        </mxCell>
        <mxCell id="0mzesN_WcEqe4faNA7i8-63" value="o" style="ellipse;whiteSpace=wrap;html=1;aspect=fixed;" vertex="1" parent="1">
          <mxGeometry x="1400" y="400" width="40" height="40" as="geometry" />
        </mxCell>
        <mxCell id="0mzesN_WcEqe4faNA7i8-77" style="edgeStyle=none;rounded=0;orthogonalLoop=1;jettySize=auto;html=1;exitX=0.5;exitY=0;exitDx=0;exitDy=0;startArrow=none;startFill=0;endArrow=halfCircle;endFill=0;" edge="1" parent="1" source="0mzesN_WcEqe4faNA7i8-65">
          <mxGeometry relative="1" as="geometry">
            <mxPoint x="1440" y="480" as="targetPoint" />
          </mxGeometry>
        </mxCell>
        <mxCell id="0mzesN_WcEqe4faNA7i8-87" style="edgeStyle=none;rounded=0;orthogonalLoop=1;jettySize=auto;html=1;exitX=0.5;exitY=1;exitDx=0;exitDy=0;entryX=0.5;entryY=0;entryDx=0;entryDy=0;startArrow=none;startFill=0;endArrow=none;endFill=0;" edge="1" parent="1" source="0mzesN_WcEqe4faNA7i8-65" target="0mzesN_WcEqe4faNA7i8-80">
          <mxGeometry relative="1" as="geometry" />
        </mxCell>
        <mxCell id="0mzesN_WcEqe4faNA7i8-88" style="edgeStyle=none;rounded=0;orthogonalLoop=1;jettySize=auto;html=1;exitX=0.5;exitY=1;exitDx=0;exitDy=0;entryX=0.5;entryY=0;entryDx=0;entryDy=0;startArrow=none;startFill=0;endArrow=none;endFill=0;" edge="1" parent="1" source="0mzesN_WcEqe4faNA7i8-65" target="0mzesN_WcEqe4faNA7i8-83">
          <mxGeometry relative="1" as="geometry" />
        </mxCell>
        <mxCell id="0mzesN_WcEqe4faNA7i8-103" style="edgeStyle=none;rounded=0;orthogonalLoop=1;jettySize=auto;html=1;exitX=0.5;exitY=1;exitDx=0;exitDy=0;entryX=0.5;entryY=0;entryDx=0;entryDy=0;startArrow=none;startFill=0;endArrow=none;endFill=0;" edge="1" parent="1" source="0mzesN_WcEqe4faNA7i8-65" target="0mzesN_WcEqe4faNA7i8-90">
          <mxGeometry relative="1" as="geometry" />
        </mxCell>
        <mxCell id="0mzesN_WcEqe4faNA7i8-65" value="profissional" style="rounded=0;whiteSpace=wrap;html=1;" vertex="1" parent="1">
          <mxGeometry x="1400" y="520" width="120" height="40" as="geometry" />
        </mxCell>
        <mxCell id="0mzesN_WcEqe4faNA7i8-78" style="edgeStyle=none;rounded=0;orthogonalLoop=1;jettySize=auto;html=1;exitX=0.5;exitY=0;exitDx=0;exitDy=0;startArrow=none;startFill=0;endArrow=halfCircle;endFill=0;" edge="1" parent="1" source="0mzesN_WcEqe4faNA7i8-66">
          <mxGeometry relative="1" as="geometry">
            <mxPoint x="1240" y="480" as="targetPoint" />
          </mxGeometry>
        </mxCell>
        <mxCell id="0mzesN_WcEqe4faNA7i8-99" style="edgeStyle=none;rounded=0;orthogonalLoop=1;jettySize=auto;html=1;exitX=0.5;exitY=1;exitDx=0;exitDy=0;entryX=0.5;entryY=0;entryDx=0;entryDy=0;startArrow=none;startFill=0;endArrow=none;endFill=0;" edge="1" parent="1" source="0mzesN_WcEqe4faNA7i8-66" target="0mzesN_WcEqe4faNA7i8-95">
          <mxGeometry relative="1" as="geometry" />
        </mxCell>
        <mxCell id="0mzesN_WcEqe4faNA7i8-100" style="edgeStyle=none;rounded=0;orthogonalLoop=1;jettySize=auto;html=1;exitX=0.5;exitY=1;exitDx=0;exitDy=0;entryX=0.5;entryY=0;entryDx=0;entryDy=0;startArrow=none;startFill=0;endArrow=none;endFill=0;" edge="1" parent="1" source="0mzesN_WcEqe4faNA7i8-66" target="0mzesN_WcEqe4faNA7i8-98">
          <mxGeometry relative="1" as="geometry" />
        </mxCell>
        <mxCell id="0mzesN_WcEqe4faNA7i8-101" style="edgeStyle=none;rounded=0;orthogonalLoop=1;jettySize=auto;html=1;exitX=0.5;exitY=1;exitDx=0;exitDy=0;entryX=0.5;entryY=0;entryDx=0;entryDy=0;startArrow=none;startFill=0;endArrow=none;endFill=0;" edge="1" parent="1" source="0mzesN_WcEqe4faNA7i8-66" target="0mzesN_WcEqe4faNA7i8-97">
          <mxGeometry relative="1" as="geometry" />
        </mxCell>
        <mxCell id="0mzesN_WcEqe4faNA7i8-66" value="idoso" style="rounded=0;whiteSpace=wrap;html=1;" vertex="1" parent="1">
          <mxGeometry x="1000" y="520" width="120" height="40" as="geometry" />
        </mxCell>
        <mxCell id="0mzesN_WcEqe4faNA7i8-86" style="edgeStyle=none;rounded=0;orthogonalLoop=1;jettySize=auto;html=1;exitX=0.5;exitY=1;exitDx=0;exitDy=0;entryX=0;entryY=0.5;entryDx=0;entryDy=0;startArrow=none;startFill=0;endArrow=none;endFill=0;" edge="1" parent="1" source="0mzesN_WcEqe4faNA7i8-80" target="0mzesN_WcEqe4faNA7i8-82">
          <mxGeometry relative="1" as="geometry" />
        </mxCell>
        <mxCell id="0mzesN_WcEqe4faNA7i8-102" style="edgeStyle=none;rounded=0;orthogonalLoop=1;jettySize=auto;html=1;exitX=0.5;exitY=1;exitDx=0;exitDy=0;entryX=0.5;entryY=0;entryDx=0;entryDy=0;startArrow=none;startFill=0;endArrow=none;endFill=0;" edge="1" parent="1" source="0mzesN_WcEqe4faNA7i8-80" target="0mzesN_WcEqe4faNA7i8-81">
          <mxGeometry relative="1" as="geometry" />
        </mxCell>
        <mxCell id="0mzesN_WcEqe4faNA7i8-80" value="conselho" style="ellipse;whiteSpace=wrap;html=1;" vertex="1" parent="1">
          <mxGeometry x="1300" y="600" width="80" height="40" as="geometry" />
        </mxCell>
        <mxCell id="0mzesN_WcEqe4faNA7i8-81" value="categoria" style="ellipse;whiteSpace=wrap;html=1;" vertex="1" parent="1">
          <mxGeometry x="1240" y="680" width="80" height="40" as="geometry" />
        </mxCell>
        <mxCell id="0mzesN_WcEqe4faNA7i8-82" value="&lt;u&gt;numero&lt;/u&gt;" style="ellipse;whiteSpace=wrap;html=1;direction=west;" vertex="1" parent="1">
          <mxGeometry x="1360" y="680" width="80" height="40" as="geometry" />
        </mxCell>
        <mxCell id="0mzesN_WcEqe4faNA7i8-83" value="setor" style="ellipse;whiteSpace=wrap;html=1;" vertex="1" parent="1">
          <mxGeometry x="1420" y="600" width="80" height="40" as="geometry" />
        </mxCell>
        <mxCell id="0mzesN_WcEqe4faNA7i8-90" value="instituicao" style="ellipse;shape=doubleEllipse;margin=3;whiteSpace=wrap;html=1;align=center;" vertex="1" parent="1">
          <mxGeometry x="1540" y="600" width="80" height="40" as="geometry" />
        </mxCell>
        <mxCell id="0mzesN_WcEqe4faNA7i8-95" value="cartao_sus" style="ellipse;whiteSpace=wrap;html=1;" vertex="1" parent="1">
          <mxGeometry x="900" y="600" width="80" height="40" as="geometry" />
        </mxCell>
        <mxCell id="0mzesN_WcEqe4faNA7i8-97" value="acamado" style="ellipse;whiteSpace=wrap;html=1;" vertex="1" parent="1">
          <mxGeometry x="1140" y="600" width="80" height="40" as="geometry" />
        </mxCell>
        <mxCell id="0mzesN_WcEqe4faNA7i8-98" value="comorbidade" style="ellipse;shape=doubleEllipse;margin=3;whiteSpace=wrap;html=1;align=center;" vertex="1" parent="1">
          <mxGeometry x="1020" y="600" width="80" height="40" as="geometry" />
        </mxCell>
      </root>
    </mxGraphModel>
  </diagram>
</mxfile>
